<svg width="75" height="72" viewBox="0 0 75 72" fill="none" xmlns="http://www.w3.org/2000/svg">
<path d="M74.6334 36.8885C74.6334 16.5202 58.001 0 37.4819 0C16.9628 0 0.342773 16.5202 0.342773 36.8885C0.342773 50.3449 7.6102 62.0977 18.4435 68.544C19.0357 68.8994 19.6403 69.2303 20.2572 69.5489C20.2819 69.5489 20.3066 69.5734 20.3313 69.5857C20.9112 69.8921 21.5158 70.174 22.1204 70.4558C22.1697 70.4803 22.2067 70.4926 22.2561 70.5171C22.8607 70.7867 23.4899 71.0441 24.1069 71.2892C24.1192 71.2892 24.1439 71.3014 24.1562 71.3014C24.8102 71.5466 25.4765 71.7794 26.1427 72C27.9812 69.8063 29.5235 67.4533 30.7697 64.9777C36.5565 53.568 36.063 39.8053 29.2644 28.8H45.7241C38.9255 39.793 38.432 53.568 44.2188 64.9777C45.465 67.441 47.0073 69.8063 48.8457 72C49.5243 71.7917 50.1783 71.5466 50.8446 71.3014C50.8569 71.3014 50.8693 71.3014 50.8939 71.2892C51.5232 71.0441 52.1401 70.7867 52.7447 70.5171C52.7941 70.4926 52.8311 70.4803 52.8804 70.4558C53.485 70.1862 54.0773 69.8921 54.6695 69.5857C54.6942 69.5734 54.7189 69.5612 54.7436 69.5489C55.3605 69.2303 55.9651 68.8872 56.5573 68.544C67.3906 62.0977 74.658 50.3449 74.658 36.8885H74.6334ZM23.2185 62.0609C14.3717 57.0975 8.38753 47.6732 8.38753 36.8885C8.38753 31.4717 9.89283 26.4102 12.5086 22.0718L18.1227 27.648C27.4876 36.9498 29.178 51.0189 23.2062 62.0487L23.2185 62.0609ZM13.3106 20.834C18.5422 13.1009 27.426 7.99047 37.4819 7.99047C47.5378 7.99047 56.434 13.0887 61.6532 20.834H13.3106ZM51.7453 62.0609C45.7734 51.0311 47.4638 36.962 56.8288 27.6603L62.4428 22.0841C65.0586 26.4225 66.5639 31.4839 66.5639 36.9008C66.5639 47.6854 60.5797 57.1098 51.733 62.0732L51.7453 62.0609Z" fill="url(#paint0_linear_5952_26696)"/>
<defs>
<linearGradient id="paint0_linear_5952_26696" x1="9.04147" y1="13.1745" x2="65.616" y2="60.9675" gradientUnits="userSpaceOnUse">
<stop offset="0.03" stop-color="#8B5C00"/>
<stop offset="0.15" stop-color="#AB8327"/>
<stop offset="0.39" stop-color="#E7CC6E"/>
<stop offset="0.5" stop-color="#FFE98B"/>
<stop offset="0.66" stop-color="#FFDD73"/>
<stop offset="1" stop-color="#C3922E"/>
</linearGradient>
</defs>
</svg>
